# Blender v2.93.4 OBJ File: 'mazeWalls.blend'
# www.blender.org
mtllib BeginningMaze.mtl
o Cube.003_Cube.005
v 5.721723 -3.262406 13.136643
v 5.721723 3.262406 13.136643
v 5.721723 -3.262406 4.006523
v 5.721723 3.262406 4.006523
v 14.287248 -3.262406 13.136643
v 14.287248 3.262406 13.136643
v 14.287248 -3.262406 4.006523
v 14.287248 3.262406 4.006523
v -11.693587 -3.262406 13.136643
v -11.693587 3.262406 13.136643
v -11.693587 -3.262406 4.006523
v -11.693587 3.262406 4.006523
v -3.128062 -3.262406 13.136643
v -3.128062 3.262406 13.136643
v -3.128062 -3.262406 4.006523
v -3.128062 3.262406 4.006523
v 5.721723 -3.262406 -4.006521
v 5.721723 3.262406 -4.006521
v 5.721723 -3.262406 -13.136645
v 5.721723 3.262406 -13.136645
v 14.287247 -3.262406 -4.006521
v 14.287247 3.262406 -4.006521
v 14.287247 -3.262406 -13.136645
v 14.287247 3.262406 -13.136645
v -11.693586 -3.262406 -4.006521
v -11.693586 3.262406 -4.006521
v -11.693586 -3.262406 -13.136645
v -11.693586 3.262406 -13.136645
v -3.128061 -3.262406 -4.006521
v -3.128061 3.262406 -4.006521
v -3.128061 -3.262406 -13.136645
v -3.128061 3.262406 -13.136645
v -10.374642 3.262406 4.006523
v -10.374642 -3.262406 4.006523
v -10.374640 -3.262406 -4.006521
v -10.374640 3.262406 -4.006521
vt 0.340272 0.489592
vt 0.510408 0.319456
vt 0.510408 0.489592
vt 0.170136 1.000000
vt 0.000000 0.829864
vt 0.170136 0.829864
vt 0.510408 0.170136
vt 0.680544 0.000000
vt 0.680544 0.170136
vt 0.510408 1.000000
vt 0.340272 0.829864
vt 0.510408 0.829864
vt 0.850680 0.000000
vt 0.850680 0.170136
vt 0.170136 0.319456
vt 0.000000 0.489592
vt 0.000000 0.319456
vt 0.340272 0.319456
vt 0.000000 1.000000
vt 0.510408 0.000000
vt 0.340272 1.000000
vt 0.170136 0.489592
vt 0.170136 0.489592
vt 0.340272 0.319456
vt 0.340272 0.489592
vt 0.510408 0.829864
vt 0.680544 0.659728
vt 0.680544 0.829864
vt 0.510408 0.829864
vt 0.340272 0.659728
vt 0.510408 0.659728
vt 0.000000 0.829864
vt 0.170136 0.659728
vt 0.170136 0.829864
vt 0.680544 0.489592
vt 0.510408 0.659728
vt 0.510408 0.489592
vt 0.340272 0.829864
vt 0.170136 0.659728
vt 0.340272 0.659728
vt 0.170136 0.319456
vt 0.510408 0.659728
vt 0.340272 0.829864
vt 0.000000 0.659728
vt 0.680544 0.659728
vt 0.170136 0.829864
vt 0.340272 0.170136
vt 0.510408 0.000000
vt 0.510408 0.170136
vt 0.340272 1.000000
vt 0.170136 0.829864
vt 0.340272 0.829864
vt 0.510408 0.489592
vt 0.680544 0.319456
vt 0.680544 0.489592
vt 0.680544 1.000000
vt 0.510408 0.829864
vt 0.680544 0.829864
vt 0.850680 0.319456
vt 0.850680 0.489592
vt 0.170136 0.000000
vt 0.000000 0.170136
vt 0.000000 0.000000
vt 0.340272 0.000000
vt 0.170136 1.000000
vt 0.510408 0.319456
vt 0.510408 1.000000
vt 0.170136 0.170136
vt 0.170136 0.170136
vt 0.340272 0.000000
vt 0.340272 0.170136
vt 0.680544 0.829864
vt 0.850680 0.659728
vt 0.850680 0.829864
vt 0.340272 0.659728
vt 0.510408 0.489592
vt 0.510408 0.659728
vt 0.680544 0.659728
vt 0.850680 0.489592
vt 0.850680 0.659728
vt 0.340272 0.489592
vt 0.170136 0.659728
vt 0.170136 0.489592
vt 0.170136 0.489592
vt 0.000000 0.659728
vt 0.000000 0.489592
vt 0.170136 0.000000
vt 0.680544 0.659728
vt 0.340272 0.489592
vt 0.680544 0.489592
vt 0.340272 0.659728
vt 0.170136 0.659728
vt 0.850680 0.489592
vt 0.876878 0.659728
vt 0.850680 0.659728
vt 0.850680 0.170136
vt 1.000000 0.000000
vt 1.000000 0.170136
vt 0.876878 0.489592
vt 0.850680 0.340272
vt 0.876878 0.340272
vt 0.850680 0.170136
vt 0.876878 0.170136
vt 0.850680 0.659728
vt 0.876878 0.809048
vt 0.850680 0.809048
vt 0.876878 0.489592
vt 0.850680 0.000000
vt 0.850680 0.489592
vt 0.876878 0.659728
vn -1.0000 0.0000 0.0000
vn 0.0000 0.0000 -1.0000
vn 1.0000 0.0000 0.0000
vn 0.0000 0.0000 1.0000
vn 0.0000 -1.0000 0.0000
vn 0.0000 1.0000 0.0000
usemtl None
s off
f 2/1/1 3/2/1 1/3/1
f 4/4/2 7/5/2 3/6/2
f 8/7/3 5/8/3 7/9/3
f 6/10/4 1/11/4 5/12/4
f 7/9/5 1/13/5 3/14/5
f 4/15/6 6/16/6 8/17/6
f 2/1/1 4/18/1 3/2/1
f 4/4/2 8/19/2 7/5/2
f 8/7/3 6/20/3 5/8/3
f 6/10/4 2/21/4 1/11/4
f 7/9/5 5/8/5 1/13/5
f 4/15/6 2/22/6 6/16/6
f 10/23/1 11/24/1 9/25/1
f 12/26/2 15/27/2 11/28/2
f 16/29/3 13/30/3 15/31/3
f 14/32/4 9/33/4 13/34/4
f 15/35/5 9/36/5 11/37/5
f 12/38/6 14/39/6 16/40/6
f 10/23/1 12/41/1 11/24/1
f 12/26/2 16/42/2 15/27/2
f 16/29/3 14/43/3 13/30/3
f 14/32/4 10/44/4 9/33/4
f 15/35/5 13/45/5 9/36/5
f 12/38/6 10/46/6 14/39/6
f 18/47/1 19/48/1 17/49/1
f 20/50/2 23/51/2 19/52/2
f 24/53/3 21/54/3 23/55/3
f 22/56/4 17/57/4 21/58/4
f 23/55/5 17/59/5 19/60/5
f 20/61/6 22/62/6 24/63/6
f 18/47/1 20/64/1 19/48/1
f 20/50/2 24/65/2 23/51/2
f 24/53/3 22/66/3 21/54/3
f 22/56/4 18/67/4 17/57/4
f 23/55/5 21/54/5 17/59/5
f 20/61/6 18/68/6 22/62/6
f 26/69/1 27/70/1 25/71/1
f 28/72/2 31/73/2 27/74/2
f 32/75/3 29/76/3 31/77/3
f 30/78/4 25/79/4 29/80/4
f 31/81/5 25/82/5 27/83/5
f 28/84/6 30/85/6 32/86/6
f 26/69/1 28/87/1 27/70/1
f 28/72/2 32/88/2 31/73/2
f 32/75/3 30/89/3 29/76/3
f 30/78/4 26/90/4 25/79/4
f 31/81/5 29/91/5 25/82/5
f 28/84/6 26/92/6 30/85/6
f 8/17/6 22/62/6 18/68/6
f 3/14/5 17/59/5 21/54/5
f 4/18/1 18/47/1 17/49/1
f 22/66/3 8/7/3 7/9/3
f 11/93/4 33/94/4 12/95/4
f 33/96/3 35/97/3 36/98/3
f 12/99/6 36/100/6 26/101/6
f 26/101/2 35/102/2 25/103/2
f 25/104/5 34/105/5 11/106/5
f 4/15/6 8/17/6 18/68/6
f 11/93/4 34/107/4 33/94/4
f 33/96/3 34/108/3 35/97/3
f 12/99/6 33/109/6 36/100/6
f 26/101/2 36/100/2 35/102/2
f 25/104/5 35/110/5 34/105/5
f 11/24/1 12/41/1 25/71/1
f 12/41/1 26/69/1 25/71/1
f 21/54/3 22/66/3 7/9/3
f 7/9/5 3/14/5 21/54/5
f 3/2/1 4/18/1 17/49/1
