# Blender v3.1.2 OBJ File: ''
# www.blender.org
mtllib BeginningMaze.mtl
o Cube.005_Cube.008
v 3.304504 3.262402 18.706192
v -12.690784 -3.262410 18.706192
v 3.304504 -3.262410 18.706192
v 3.304504 3.262403 9.576066
v 11.870029 -3.262408 9.576064
v 3.304504 -3.262408 9.576064
v 11.870029 3.262403 9.576066
v 11.870029 -3.262410 18.706192
v 11.870029 3.262402 18.706192
v -12.690784 3.262403 9.576066
v -12.690784 3.262402 18.706192
v -12.690784 -3.262408 9.576064
v 3.304505 3.262404 -0.650482
v 3.304505 -3.262405 -9.780610
v 3.304505 -3.262407 -0.650483
v 11.870029 3.262406 -9.780608
v 3.304505 3.262406 -10.780608
v 3.304505 3.262406 -9.780608
v 11.870029 -3.262407 -0.650483
v 11.870029 -3.262405 -9.780610
v 11.870029 3.262404 -0.650482
v -12.697945 -3.262406 -9.780595
v -4.132421 -3.262406 -10.780595
v -4.132421 -3.262406 -9.780595
v -12.697945 3.262404 -0.650482
v -12.697945 -3.262408 -0.650483
v 11.870029 -3.262405 -10.780610
v -4.132421 3.262406 -9.780593
v -4.132421 -3.262408 -0.650483
v -4.132421 3.262404 -0.650482
v -12.697945 3.262406 -9.780593
v 11.870029 3.262406 -10.780608
v 3.304505 -3.262405 -10.780610
v -12.697945 3.262406 -10.780593
v -12.697945 -3.262406 -10.780595
v -4.132421 3.262406 -10.780593
vt 0.501930 0.312435
vt 0.669240 0.000000
vt 0.669240 0.312435
vt 0.000000 0.167310
vt 0.167310 0.000000
vt 0.167310 0.167310
vt 0.501930 0.832690
vt 0.334620 0.665380
vt 0.501930 0.665380
vt 0.501930 0.479745
vt 0.669240 0.479745
vt 0.501930 0.479745
vt 0.334620 0.312435
vt 0.501930 0.312435
vt 0.334620 0.167310
vt 0.167310 0.000000
vt 0.334620 0.000000
vt 0.000000 0.479745
vt 0.000000 0.000000
vt 0.334620 0.832690
vt 0.334620 0.479745
vt 0.167310 0.167310
vt 0.669240 0.832690
vt 0.501930 0.665380
vt 0.669240 0.665380
vt 0.501930 0.832690
vt 0.167310 0.479745
vt 0.501930 0.000000
vt 0.836550 0.538580
vt 0.669240 0.371270
vt 0.836550 0.371270
vt 0.669240 0.647055
vt 0.501930 0.665380
vt 0.501930 0.647055
vt 0.836550 0.018325
vt 0.669240 0.185635
vt 0.669240 0.018325
vt 0.836550 0.873200
vt 0.669240 0.705890
vt 0.836550 0.705890
vt 0.836550 0.203960
vt 0.669240 0.371270
vt 0.669240 0.203960
vt 0.669240 0.479745
vt 0.669240 0.538580
vt 0.334620 0.498070
vt 0.501930 0.479745
vt 0.501930 0.498070
vt 0.836550 0.185635
vt 0.669240 0.873200
vt 0.836550 0.371270
vt 0.501930 0.479745
vt 0.334620 0.479745
vt 0.167310 0.647055
vt 0.167310 0.479745
vt 0.836550 0.185635
vt 0.167310 0.832690
vt 0.000000 0.665380
vt 0.167310 0.665380
vt 0.167310 1.000000
vt 0.000000 0.832690
vt 0.167310 0.832690
vt 0.334620 0.665380
vt 0.167310 0.498070
vt 0.000000 0.665380
vt 0.000000 0.498070
vt 0.334620 0.647055
vt 0.854875 0.479885
vt 0.854875 0.334620
vt 0.836550 0.334620
vt 0.000000 0.832690
vt 0.000000 1.000000
vt 0.501930 0.665380
vt 0.167310 0.665380
vt 0.836550 0.000000
vt 0.836550 0.705890
vt 0.669240 0.538580
vt 0.836550 0.538580
vt 0.669240 0.705890
vt 0.334620 0.832690
vt 0.167310 0.665380
vt 0.334620 0.665380
vt 0.167310 0.832690
vt 0.981815 0.000000
vt 0.836550 0.000000
vt 0.836550 0.167310
vt 0.854875 0.479885
vt 0.836550 0.479885
vt 0.836550 0.625150
vt 0.167310 0.479745
vt 0.167310 0.665380
vt 0.981815 0.334620
vt 0.836550 0.167310
vt 0.981815 0.167310
vt 0.501930 0.000000
vt 0.167310 0.479745
vt 0.334620 0.479745
vt 0.334620 0.000000
vt 0.669240 0.665380
vt 0.334620 0.479745
vt 0.669240 0.185635
vt 0.836550 0.479885
vt 0.669240 0.000000
vt 0.981815 0.167310
vt 0.854875 0.625150
vt 0.000000 0.479745
vt 0.334620 0.665380
vt 0.836550 0.334620
vn 0.0000 0.0000 1.0000
vn 0.0000 0.0000 -1.0000
vn 1.0000 0.0000 0.0000
vn 0.0000 -1.0000 -0.0000
vn 0.0000 1.0000 0.0000
vn -1.0000 -0.0000 0.0000
usemtl None.001
s 1
f 1/1/1 2/2/1 3/3/1
f 4/4/2 5/5/2 6/6/2
f 7/7/3 8/8/3 5/9/3
f 9/10/1 3/3/1 8/11/1
f 5/12/4 3/13/4 6/14/4
f 4/15/5 9/16/5 7/17/5
f 6/6/2 10/18/2 4/4/2
f 4/4/2 7/19/2 5/5/2
f 7/7/3 9/20/3 8/8/3
f 9/10/1 1/1/1 3/3/1
f 5/12/4 8/21/4 3/13/4
f 4/15/5 1/22/5 9/16/5
f 11/23/6 12/24/6 2/25/6
f 11/23/6 10/26/6 12/24/6
f 4/15/5 11/27/5 1/22/5
f 3/13/4 12/28/4 6/14/4
f 13/29/6 14/30/6 15/31/6
f 16/32/5 17/33/5 18/34/5
f 16/35/3 19/36/3 20/37/3
f 21/38/1 15/39/1 19/40/1
f 20/41/4 15/42/4 14/43/4
f 18/34/5 21/44/5 16/32/5
f 13/29/6 18/45/6 14/30/6
f 22/46/4 23/47/4 24/48/4
f 16/35/3 21/49/3 19/36/3
f 21/38/1 13/50/1 15/39/1
f 20/41/4 19/51/4 15/42/4
f 18/34/5 13/52/5 21/44/5
f 25/53/6 22/54/6 26/55/6
f 14/43/4 27/56/4 20/41/4
f 28/57/3 29/58/3 24/59/3
f 30/60/1 26/61/1 29/62/1
f 24/48/4 26/63/4 22/46/4
f 31/64/5 30/65/5 28/66/5
f 25/53/6 31/67/6 22/54/6
f 14/68/4 24/69/4 23/70/4
f 28/57/3 30/71/3 29/58/3
f 30/60/1 25/72/1 26/61/1
f 24/48/4 29/73/4 26/63/4
f 31/64/5 25/74/5 30/65/5
f 20/37/3 32/75/3 16/35/3
f 17/76/2 27/77/2 33/78/2
f 17/76/2 32/79/2 27/77/2
f 34/80/2 23/81/2 35/82/2
f 34/80/2 36/83/2 23/81/2
f 33/84/2 23/85/2 36/86/2
f 18/87/5 17/88/5 36/89/5
f 28/66/5 34/90/5 31/64/5
f 31/67/6 35/91/6 22/54/6
f 18/92/1 24/93/1 14/94/1
f 1/1/1 11/95/1 2/2/1
f 6/6/2 12/96/2 10/18/2
f 4/15/5 10/97/5 11/27/5
f 3/13/4 2/98/4 12/28/4
f 16/32/5 32/99/5 17/33/5
f 22/46/4 35/100/4 23/47/4
f 14/43/4 33/101/4 27/56/4
f 14/68/4 23/70/4 33/102/4
f 20/37/3 27/103/3 32/75/3
f 33/84/2 36/86/2 17/104/2
f 18/87/5 36/89/5 28/105/5
f 28/66/5 36/106/5 34/90/5
f 31/67/6 34/107/6 35/91/6
f 18/92/1 28/108/1 24/93/1
