# Blender v2.93.4 OBJ File: 'mazeWalls.blend'
# www.blender.org
mtllib BeginningMaze.mtl
o Cube
v 16.237322 6.692127 -143.566650
v 16.237322 0.130573 -143.566650
v 16.237322 6.692127 -141.566650
v 16.237322 0.130573 -141.566650
v -16.237322 6.692127 -143.566650
v -16.237322 0.130573 -143.566650
v -16.237322 6.692127 -141.566650
v -16.237322 0.130573 -141.566650
v 5.412440 0.130573 -143.566650
v -5.412440 0.130573 -143.566650
v 5.412440 6.692127 -141.566650
v -5.412440 6.692127 -141.566650
v -5.412440 0.130573 -141.566650
v 5.412440 0.130573 -141.566650
v -5.412440 6.692127 -143.566650
v 5.412440 6.692127 -143.566650
v -16.237322 0.130573 -129.486923
v -16.237322 6.692127 -129.486923
v 16.237322 6.692127 -129.486923
v 16.237322 0.130573 -129.486923
v -5.412440 6.692127 -129.486923
v 5.412440 0.130573 -129.486923
v 5.412440 6.692127 -129.486923
v -5.412440 0.130573 -129.486923
v -16.237322 0.130573 -119.298752
v -16.237322 6.692127 -119.298752
v 16.237322 6.692127 -119.298752
v 16.237322 0.130573 -119.298752
v -5.412440 6.692127 -119.298752
v 5.412440 0.130573 -119.298752
v 5.412440 6.692127 -119.298752
v -5.412440 0.130573 -119.298752
v -16.237322 0.130573 -116.949448
v -16.237322 6.692127 -116.949448
v 16.237322 6.692127 -116.949448
v 16.237322 0.130573 -116.949448
v -5.412440 6.692127 -116.949448
v 5.412440 0.130573 -116.949448
v 5.412440 6.692127 -116.949448
v -5.412440 0.130573 -116.949448
vt 0.272727 0.000000
vt 0.227273 0.136364
vt 0.227273 0.000000
vt 0.681818 0.823617
vt 0.818182 0.000000
vt 0.818182 0.823617
vt 0.272727 0.136364
vt 0.409091 0.000000
vt 0.409091 0.136364
vt 0.136364 0.000000
vt 0.090909 0.136364
vt 0.090909 0.000000
vt 0.409091 0.959981
vt 0.545455 0.823617
vt 0.545455 0.959981
vt 0.590909 0.959981
vt 0.545455 0.823617
vt 0.590909 0.823617
vt 0.681818 0.959981
vt 0.636364 0.823617
vt 0.681818 0.823617
vt 0.636364 0.959981
vt 0.045455 0.000000
vt 0.000000 0.136364
vt 0.000000 0.000000
vt 0.045455 0.136364
vt 0.000000 0.959981
vt 1.000000 0.136364
vt 0.954545 0.000000
vt 1.000000 0.000000
vt 0.181818 0.000000
vt 0.136364 0.136364
vt 0.136364 0.000000
vt 0.181818 0.136364
vt 0.772727 0.959981
vt 0.727273 0.823617
vt 0.772727 0.823617
vt 0.727273 0.959981
vt 0.681818 0.823617
vt 0.727273 0.823617
vt 0.136364 0.959981
vt 0.272727 0.959981
vt 0.136364 0.136364
vt 0.090909 0.959981
vt 0.227273 0.959981
vt 0.409091 0.823617
vt 0.545455 0.000000
vt 0.681818 0.000000
vt 0.545455 0.823617
vt 0.545455 0.000000
vt 0.954545 0.777082
vt 0.909091 0.913445
vt 0.909091 0.777082
vt 0.863636 0.777082
vt 0.818182 0.913445
vt 0.818182 0.777082
vt 0.863636 0.913445
vt 0.863636 0.777082
vt 0.818182 0.640718
vt 0.863636 0.640718
vt 0.954545 0.777082
vt 0.909091 0.640718
vt 0.954545 0.640718
vt 0.909091 0.777082
vt 0.818182 0.480537
vt 0.954545 0.320358
vt 0.954545 0.480537
vt 0.909091 0.000000
vt 0.863636 0.160179
vt 0.863636 0.000000
vt 0.818182 0.160179
vt 0.818182 0.000000
vt 0.954545 0.000000
vt 0.909091 0.160179
vt 0.954545 0.480539
vt 0.818182 0.640718
vt 0.818182 0.480539
vt 0.909091 0.160179
vt 0.863636 0.320358
vt 0.863636 0.160179
vt 0.818182 0.320358
vt 0.818182 0.160179
vt 0.954545 0.160179
vt 0.909091 0.320358
vt 0.681818 0.000000
vt 0.545455 0.959981
vt 0.045455 0.959981
vt 0.954545 0.136364
vt 0.727273 0.959981
vt 0.681818 0.959981
vt 0.181818 0.959981
vt 0.409091 0.959981
vt 0.136364 0.959981
vt 0.409091 0.000000
vt 0.954545 0.913445
vt 0.818182 0.777082
vt 0.818182 0.320358
vt 0.954545 0.160179
vt 0.954545 0.640718
vn 0.0000 1.0000 0.0000
vn 1.0000 0.0000 0.0000
vn -1.0000 0.0000 0.0000
vn 0.0000 -1.0000 0.0000
vn 0.0000 0.0000 -1.0000
vn 0.0000 0.0000 1.0000
usemtl Material
s off
f 5/1/1 12/2/1 15/3/1
f 12/4/2 24/5/2 13/6/2
f 7/7/3 6/8/3 8/9/3
f 2/10/4 14/11/4 9/12/4
f 1/13/2 4/14/2 2/15/2
f 16/16/5 2/17/5 9/18/5
f 5/19/5 10/20/5 6/21/5
f 15/22/5 9/18/5 10/20/5
f 10/23/4 8/24/4 6/25/4
f 9/12/4 13/26/4 10/23/4
f 13/26/4 17/27/4 8/24/4
f 11/28/6 13/29/6 14/30/6
f 16/31/1 3/32/1 1/33/1
f 15/3/1 11/34/1 16/31/1
f 21/35/6 17/36/6 24/37/6
f 19/38/6 22/39/6 20/40/6
f 11/34/1 19/41/1 3/32/1
f 8/9/3 18/42/3 7/7/3
f 4/43/4 22/44/4 14/11/4
f 7/7/1 21/45/1 12/2/1
f 3/46/2 20/47/2 4/14/2
f 14/48/3 23/49/3 11/50/3
f 25/51/5 29/52/5 32/53/5
f 30/54/5 27/55/5 28/56/5
f 32/53/5 31/57/5 30/54/5
f 37/58/6 33/59/6 40/60/6
f 35/61/6 38/62/6 36/63/6
f 39/64/6 40/60/6 38/62/6
f 27/65/2 36/66/2 28/67/2
f 29/68/1 39/69/1 31/70/1
f 31/70/1 35/71/1 27/72/1
f 26/73/1 37/74/1 29/68/1
f 25/75/3 34/76/3 26/77/3
f 30/78/4 40/79/4 32/80/4
f 32/80/4 33/81/4 25/82/4
f 28/83/4 38/84/4 30/78/4
f 5/1/1 7/7/1 12/2/1
f 12/4/2 21/85/2 24/5/2
f 7/7/3 5/1/3 6/8/3
f 2/10/4 4/43/4 14/11/4
f 1/13/2 3/46/2 4/14/2
f 16/16/5 1/86/5 2/17/5
f 5/19/5 15/22/5 10/20/5
f 15/22/5 16/16/5 9/18/5
f 10/23/4 13/26/4 8/24/4
f 9/12/4 14/11/4 13/26/4
f 13/26/4 24/87/4 17/27/4
f 11/28/6 12/88/6 13/29/6
f 16/31/1 11/34/1 3/32/1
f 15/3/1 12/2/1 11/34/1
f 21/35/6 18/89/6 17/36/6
f 19/38/6 23/90/6 22/39/6
f 11/34/1 23/91/1 19/41/1
f 8/9/3 17/92/3 18/42/3
f 4/43/4 20/93/4 22/44/4
f 7/7/1 18/42/1 21/45/1
f 3/46/2 19/94/2 20/47/2
f 14/48/3 22/39/3 23/49/3
f 25/51/5 26/95/5 29/52/5
f 30/54/5 31/57/5 27/55/5
f 32/53/5 29/52/5 31/57/5
f 37/58/6 34/96/6 33/59/6
f 35/61/6 39/64/6 38/62/6
f 39/64/6 37/58/6 40/60/6
f 27/65/2 35/97/2 36/66/2
f 29/68/1 37/74/1 39/69/1
f 31/70/1 39/69/1 35/71/1
f 26/73/1 34/98/1 37/74/1
f 25/75/3 33/99/3 34/76/3
f 30/78/4 38/84/4 40/79/4
f 32/80/4 40/79/4 33/81/4
f 28/83/4 36/66/4 38/84/4
