# Blender v2.93.4 OBJ File: 'mazeWalls.blend'
# www.blender.org
mtllib BeginningMaze.mtl
o Cube.005_Cube.008
v -4.282763 0.173261 -114.955460
v -4.282763 6.698073 -114.955460
v -4.282763 0.173261 -124.085587
v -4.282763 6.698073 -124.085587
v 4.282763 0.173261 -114.955460
v 4.282763 6.698073 -114.955460
v 4.282763 0.173261 -124.085587
v 4.282763 6.698073 -124.085587
v -20.278051 0.173261 -124.085587
v -20.278051 0.173261 -114.955460
v -20.278051 6.698073 -114.955460
v -20.278051 6.698073 -124.085587
v -4.282762 0.173261 -134.312134
v -4.282762 6.698072 -134.312134
v -4.282762 0.173261 -143.442261
v -4.282762 6.698072 -143.442261
v 4.282762 0.173261 -134.312134
v 4.282762 6.698072 -134.312134
v 4.282762 0.173261 -143.442261
v 4.282762 6.698072 -143.442261
v -20.285212 0.173260 -134.312134
v -20.285212 6.698072 -134.312134
v -20.285212 0.173260 -143.442245
v -20.285212 6.698072 -143.442245
v -11.719687 0.173260 -134.312134
v -11.719687 6.698072 -134.312134
v -11.719687 0.173260 -143.442245
v -11.719687 6.698072 -143.442245
v -4.282762 6.698072 -144.442261
v -4.282762 0.173261 -144.442261
v 4.282763 0.173261 -144.442261
v 4.282763 6.698072 -144.442261
v -20.285212 6.698072 -144.442245
v -20.285212 0.173260 -144.442245
v -11.719687 0.173260 -144.442245
v -11.719687 6.698072 -144.442245
vt 0.501930 0.312435
vt 0.669240 0.000000
vt 0.669240 0.312435
vt 0.000000 0.167310
vt 0.167310 0.000000
vt 0.167310 0.167310
vt 0.501930 0.832690
vt 0.334620 0.665380
vt 0.501930 0.665380
vt 0.501930 0.479745
vt 0.669240 0.479745
vt 0.501930 0.479745
vt 0.334620 0.312435
vt 0.501930 0.312435
vt 0.334620 0.167310
vt 0.167310 0.000000
vt 0.334620 0.000000
vt 0.000000 0.479745
vt 0.000000 0.000000
vt 0.334620 0.832690
vt 0.334620 0.479745
vt 0.167310 0.167310
vt 0.669240 0.832690
vt 0.501930 0.665380
vt 0.669240 0.665380
vt 0.501930 0.832690
vt 0.167310 0.479745
vt 0.501930 0.000000
vt 0.836550 0.538580
vt 0.669240 0.371270
vt 0.836550 0.371270
vt 0.669240 0.647055
vt 0.501930 0.665380
vt 0.501930 0.647055
vt 0.836550 0.018325
vt 0.669240 0.185635
vt 0.669240 0.018325
vt 0.836550 0.873200
vt 0.669240 0.705890
vt 0.836550 0.705890
vt 0.836550 0.203960
vt 0.669240 0.371270
vt 0.669240 0.203960
vt 0.669240 0.479745
vt 0.669240 0.538580
vt 0.334620 0.498070
vt 0.501930 0.479745
vt 0.501930 0.498070
vt 0.836550 0.185635
vt 0.669240 0.873200
vt 0.836550 0.371270
vt 0.501930 0.479745
vt 0.334620 0.479745
vt 0.167310 0.647055
vt 0.167310 0.479745
vt 0.836550 0.185635
vt 0.167310 0.832690
vt 0.000000 0.665380
vt 0.167310 0.665380
vt 0.167310 1.000000
vt 0.000000 0.832690
vt 0.167310 0.832690
vt 0.334620 0.665380
vt 0.167310 0.498070
vt 0.000000 0.665380
vt 0.000000 0.498070
vt 0.334620 0.647055
vt 0.854875 0.479885
vt 0.854875 0.334620
vt 0.836550 0.334620
vt 0.000000 0.832690
vt 0.000000 1.000000
vt 0.501930 0.665380
vt 0.167310 0.665380
vt 0.836550 0.000000
vt 0.836550 0.705890
vt 0.669240 0.538580
vt 0.836550 0.538580
vt 0.669240 0.705890
vt 0.334620 0.832690
vt 0.167310 0.665380
vt 0.334620 0.665380
vt 0.167310 0.832690
vt 0.981815 0.000000
vt 0.836550 0.000000
vt 0.836550 0.167310
vt 0.854875 0.479885
vt 0.836550 0.479885
vt 0.836550 0.625150
vt 0.167310 0.479745
vt 0.167310 0.665380
vt 0.981815 0.334620
vt 0.836550 0.167310
vt 0.981815 0.167310
vt 0.501930 0.000000
vt 0.167310 0.479745
vt 0.334620 0.479745
vt 0.334620 0.000000
vt 0.669240 0.665380
vt 0.334620 0.479745
vt 0.669240 0.185635
vt 0.836550 0.479885
vt 0.669240 0.000000
vt 0.981815 0.167310
vt 0.854875 0.625150
vt 0.000000 0.479745
vt 0.334620 0.665380
vt 0.836550 0.334620
vn 0.0000 0.0000 1.0000
vn 0.0000 0.0000 -1.0000
vn 1.0000 0.0000 0.0000
vn 0.0000 -1.0000 0.0000
vn 0.0000 1.0000 0.0000
vn -1.0000 0.0000 0.0000
usemtl None
s off
f 2/1/1 10/2/1 1/3/1
f 4/4/2 7/5/2 3/6/2
f 8/7/3 5/8/3 7/9/3
f 6/10/1 1/3/1 5/11/1
f 7/12/4 1/13/4 3/14/4
f 4/15/5 6/16/5 8/17/5
f 3/6/2 12/18/2 4/4/2
f 4/4/2 8/19/2 7/5/2
f 8/7/3 6/20/3 5/8/3
f 6/10/1 2/1/1 1/3/1
f 7/12/4 5/21/4 1/13/4
f 4/15/5 2/22/5 6/16/5
f 11/23/6 9/24/6 10/25/6
f 11/23/6 12/26/6 9/24/6
f 4/15/5 11/27/5 2/22/5
f 1/13/4 9/28/4 3/14/4
f 14/29/6 15/30/6 13/31/6
f 20/32/5 29/33/5 16/34/5
f 20/35/3 17/36/3 19/37/3
f 18/38/1 13/39/1 17/40/1
f 19/41/4 13/42/4 15/43/4
f 16/34/5 18/44/5 20/32/5
f 14/29/6 16/45/6 15/30/6
f 23/46/4 35/47/4 27/48/4
f 20/35/3 18/49/3 17/36/3
f 18/38/1 14/50/1 13/39/1
f 19/41/4 17/51/4 13/42/4
f 16/34/5 14/52/5 18/44/5
f 22/53/6 23/54/6 21/55/6
f 15/43/4 31/56/4 19/41/4
f 28/57/3 25/58/3 27/59/3
f 26/60/1 21/61/1 25/62/1
f 27/48/4 21/63/4 23/46/4
f 24/64/5 26/65/5 28/66/5
f 22/53/6 24/67/6 23/54/6
f 15/68/4 27/69/4 35/70/4
f 28/57/3 26/71/3 25/58/3
f 26/60/1 22/72/1 21/61/1
f 27/48/4 25/73/4 21/63/4
f 24/64/5 22/74/5 26/65/5
f 19/37/3 32/75/3 20/35/3
f 29/76/2 31/77/2 30/78/2
f 29/76/2 32/79/2 31/77/2
f 33/80/2 35/81/2 34/82/2
f 33/80/2 36/83/2 35/81/2
f 30/84/2 35/85/2 36/86/2
f 16/87/5 29/88/5 36/89/5
f 28/66/5 33/90/5 24/64/5
f 24/67/6 34/91/6 23/54/6
f 16/92/1 27/93/1 15/94/1
f 2/1/1 11/95/1 10/2/1
f 3/6/2 9/96/2 12/18/2
f 4/15/5 12/97/5 11/27/5
f 1/13/4 10/98/4 9/28/4
f 20/32/5 32/99/5 29/33/5
f 23/46/4 34/100/4 35/47/4
f 15/43/4 30/101/4 31/56/4
f 15/68/4 35/70/4 30/102/4
f 19/37/3 31/103/3 32/75/3
f 30/84/2 36/86/2 29/104/2
f 16/87/5 36/89/5 28/105/5
f 28/66/5 36/106/5 33/90/5
f 24/67/6 33/107/6 34/91/6
f 16/92/1 28/108/1 27/93/1
