# Blender v2.93.4 OBJ File: 'mazeWalls.blend'
# www.blender.org
mtllib CenterMaze.mtl
o Cube.002
v -4.282763 0.173261 -73.819687
v -4.282763 6.698073 -73.819687
v -4.282763 0.173261 -82.949814
v -4.282763 6.698073 -82.949814
v 4.282763 0.173261 -73.819687
v 4.282763 6.698073 -73.819687
v 4.282763 0.173261 -82.949814
v 4.282763 6.698073 -82.949814
v -4.282762 0.173261 -93.162682
v -4.282762 6.698072 -93.162682
v -4.282762 0.173261 -102.292801
v -4.282762 6.698072 -102.292801
v 4.282762 0.173261 -93.162682
v 4.282762 6.698072 -93.162682
v 4.282762 0.173261 -102.292801
v 4.282762 6.698072 -102.292801
v -20.285213 0.173261 -73.819687
v -20.285213 6.698072 -73.819687
v -20.285213 0.173261 -82.949814
v -20.285213 6.698072 -82.949814
v -11.719688 0.173261 -73.819687
v -11.719688 6.698072 -73.819687
v -11.719688 0.173261 -82.949814
v -11.719688 6.698072 -82.949814
v -20.285213 0.173261 -93.162682
v -20.285213 6.698072 -93.162682
v -20.285213 0.173261 -102.292801
v -20.285213 6.698072 -102.292801
v -11.719688 0.173261 -93.162682
v -11.719688 6.698072 -93.162682
v -11.719688 0.173261 -102.292801
v -11.719688 6.698072 -102.292801
vt 0.800000 0.400000
vt 0.600000 0.200000
vt 0.800000 0.200000
vt 0.600000 0.800000
vt 0.400000 0.600000
vt 0.600000 0.600000
vt 0.800000 0.600000
vt 0.600000 0.400000
vt 0.800000 0.400000
vt 0.800000 0.800000
vt 0.600000 0.600000
vt 0.800000 0.600000
vt 0.200000 0.800000
vt 0.000000 1.000000
vt 0.000000 0.800000
vt 1.000000 0.000000
vt 0.800000 0.200000
vt 0.800000 0.000000
vt 0.600000 0.400000
vt 0.400000 0.800000
vt 0.600000 0.600000
vt 0.600000 0.800000
vt 0.200000 1.000000
vt 1.000000 0.200000
vt 0.600000 0.400000
vt 0.400000 0.200000
vt 0.600000 0.200000
vt 0.400000 0.600000
vt 0.200000 0.400000
vt 0.400000 0.400000
vt 0.600000 0.600000
vt 0.400000 0.400000
vt 0.600000 0.400000
vt 0.200000 0.800000
vt 0.000000 0.600000
vt 0.200000 0.600000
vt 0.800000 0.000000
vt 0.600000 0.000000
vt 0.200000 0.600000
vt 0.400000 0.400000
vt 0.400000 0.600000
vt 0.000000 0.800000
vt 0.800000 0.200000
vt 0.400000 0.800000
vt 1.000000 0.400000
vt 0.800000 0.200000
vt 1.000000 0.200000
vt 0.400000 1.000000
vt 0.200000 0.800000
vt 0.400000 0.800000
vt 0.600000 1.000000
vt 0.400000 0.800000
vt 0.600000 0.800000
vt 1.000000 0.600000
vt 0.800000 0.400000
vt 1.000000 0.400000
vt 1.000000 0.600000
vt 0.800000 0.800000
vt 0.800000 0.600000
vt 0.800000 0.800000
vt 0.600000 1.000000
vt 0.600000 0.800000
vt 0.800000 0.400000
vt 0.200000 1.000000
vt 0.400000 1.000000
vt 0.800000 0.600000
vt 1.000000 0.800000
vt 0.800000 1.000000
vt 0.200000 0.200000
vt 0.000000 0.000000
vt 0.200000 0.000000
vt 0.200000 0.400000
vt 0.000000 0.200000
vt 0.200000 0.200000
vt 0.400000 0.200000
vt 0.200000 0.000000
vt 0.400000 0.000000
vt 0.400000 0.400000
vt 0.200000 0.200000
vt 0.400000 0.200000
vt 0.200000 0.400000
vt 0.000000 0.600000
vt 0.000000 0.400000
vt 0.600000 0.000000
vt 0.400000 0.200000
vt 0.400000 0.000000
vt 0.000000 0.200000
vt 0.000000 0.400000
vt 0.200000 0.200000
vt 0.200000 0.400000
vt 0.200000 0.600000
vt 0.600000 0.200000
vn -1.0000 0.0000 0.0000
vn 0.0000 0.0000 -1.0000
vn 1.0000 0.0000 0.0000
vn 0.0000 0.0000 1.0000
vn 0.0000 -1.0000 0.0000
vn 0.0000 1.0000 0.0000
usemtl None
s off
f 2/1/1 3/2/1 1/3/1
f 4/4/2 7/5/2 3/6/2
f 8/7/3 5/8/3 7/9/3
f 6/10/4 1/11/4 5/12/4
f 7/13/5 1/14/5 3/15/5
f 4/16/6 6/17/6 8/18/6
f 2/1/1 4/19/1 3/2/1
f 4/4/2 8/20/2 7/5/2
f 8/7/3 6/21/3 5/8/3
f 6/10/4 2/22/4 1/11/4
f 7/13/5 5/23/5 1/14/5
f 4/16/6 2/24/6 6/17/6
f 10/25/1 11/26/1 9/27/1
f 12/28/2 15/29/2 11/30/2
f 16/31/3 13/32/3 15/33/3
f 14/34/4 9/35/4 13/36/4
f 15/37/5 9/27/5 11/38/5
f 12/28/6 14/34/6 16/39/6
f 10/25/1 12/40/1 11/26/1
f 12/28/2 16/39/2 15/29/2
f 16/31/3 14/41/3 13/32/3
f 14/34/4 10/42/4 9/35/4
f 15/37/5 13/43/5 9/27/5
f 12/28/6 10/44/6 14/34/6
f 18/45/1 19/46/1 17/47/1
f 20/48/2 23/49/2 19/50/2
f 24/51/3 21/52/3 23/53/3
f 22/54/4 17/55/4 21/56/4
f 23/57/5 17/58/5 19/59/5
f 20/60/6 22/61/6 24/62/6
f 18/45/1 20/63/1 19/46/1
f 20/48/2 24/64/2 23/49/2
f 24/51/3 22/65/3 21/52/3
f 22/54/4 18/66/4 17/55/4
f 23/57/5 21/67/5 17/58/5
f 20/60/6 18/68/6 22/61/6
f 26/69/1 27/70/1 25/71/1
f 28/72/2 31/73/2 27/74/2
f 32/75/3 29/76/3 31/77/3
f 30/78/4 25/79/4 29/80/4
f 31/81/5 25/82/5 27/83/5
f 28/84/6 30/85/6 32/86/6
f 26/69/1 28/87/1 27/70/1
f 28/72/2 32/88/2 31/73/2
f 32/75/3 30/89/3 29/76/3
f 30/78/4 26/90/4 25/79/4
f 31/81/5 29/91/5 25/82/5
f 28/84/6 26/92/6 30/85/6
