# Blender v2.93.4 OBJ File: 'mazeWalls.blend'
# www.blender.org
mtllib CenterMaze.mtl
o Cube.002_Cube.004
v 4.424893 -3.262406 13.136643
v 4.424893 3.262406 13.136643
v 4.424893 -3.262406 4.006524
v 4.424893 3.262406 4.006524
v 12.990417 -3.262406 13.136643
v 12.990417 3.262406 13.136643
v 12.990417 -3.262406 4.006524
v 12.990417 3.262406 4.006524
v -12.990418 -3.262406 13.136643
v -12.990418 3.262406 13.136643
v -12.990418 -3.262406 4.006524
v -12.990418 3.262406 4.006524
v -4.424891 -3.262406 13.136643
v -4.424891 3.262406 13.136643
v -4.424891 -3.262406 4.006524
v -4.424891 3.262406 4.006524
v 4.424892 -3.262406 -4.006523
v 4.424892 3.262406 -4.006523
v 4.424892 -3.262406 -13.136644
v 4.424892 3.262406 -13.136644
v 12.990417 -3.262406 -4.006523
v 12.990417 3.262406 -4.006523
v 12.990417 -3.262406 -13.136644
v 12.990417 3.262406 -13.136644
v -12.990417 -3.262406 -4.006523
v -12.990417 3.262406 -4.006523
v -12.990417 -3.262406 -13.136644
v -12.990417 3.262406 -13.136644
v -4.424891 -3.262406 -4.006523
v -4.424891 3.262406 -4.006523
v -4.424891 -3.262406 -13.136644
v -4.424891 3.262406 -13.136644
vt 0.800000 0.600000
vt 0.600000 0.400000
vt 0.800000 0.400000
vt 1.000000 0.800000
vt 0.800000 0.600000
vt 1.000000 0.600000
vt 0.600000 0.600000
vt 0.400000 0.400000
vt 0.600000 0.400000
vt 1.000000 0.600000
vt 1.000000 0.400000
vt 0.200000 0.400000
vt 0.000000 0.600000
vt 0.000000 0.400000
vt 1.000000 0.400000
vt 0.800000 0.200000
vt 1.000000 0.200000
vt 0.600000 0.600000
vt 0.800000 0.800000
vt 0.400000 0.600000
vt 0.200000 0.600000
vt 0.800000 0.400000
vt 0.200000 0.800000
vt 0.000000 0.600000
vt 0.200000 0.600000
vt 0.000000 1.000000
vt 0.200000 0.800000
vt 0.200000 1.000000
vt 0.400000 0.600000
vt 0.200000 0.400000
vt 0.400000 0.400000
vt 0.800000 0.200000
vt 1.000000 0.000000
vt 1.000000 0.200000
vt 0.600000 0.800000
vt 0.400000 0.600000
vt 0.600000 0.600000
vt 0.600000 0.000000
vt 0.400000 0.200000
vt 0.400000 0.000000
vt 0.000000 0.800000
vt 0.000000 0.800000
vt 0.200000 0.600000
vt 0.800000 0.000000
vt 0.400000 0.800000
vt 0.600000 0.200000
vt 0.400000 0.800000
vt 0.200000 0.600000
vt 0.400000 0.600000
vt 0.800000 1.000000
vt 0.600000 0.800000
vt 0.800000 0.800000
vt 0.800000 0.200000
vt 0.600000 0.000000
vt 0.800000 0.000000
vt 0.800000 0.800000
vt 0.600000 0.600000
vt 0.800000 0.600000
vt 0.200000 0.200000
vt 0.000000 0.400000
vt 0.000000 0.200000
vt 0.400000 0.200000
vt 0.200000 0.400000
vt 0.200000 0.200000
vt 0.200000 0.800000
vt 0.600000 1.000000
vt 0.600000 0.200000
vt 0.600000 0.800000
vt 0.200000 0.400000
vt 0.400000 0.400000
vt 0.800000 0.400000
vt 0.600000 0.200000
vt 0.800000 0.200000
vt 0.400000 1.000000
vt 0.200000 0.800000
vt 0.400000 0.800000
vt 0.600000 0.400000
vt 0.400000 0.200000
vt 0.600000 0.200000
vt 0.600000 1.000000
vt 0.400000 0.800000
vt 0.600000 0.800000
vt 0.400000 0.000000
vt 0.200000 0.200000
vt 0.200000 0.000000
vt 0.200000 0.000000
vt 0.000000 0.200000
vt 0.000000 0.000000
vt 0.600000 0.400000
vt 0.200000 1.000000
vt 0.400000 0.400000
vt 0.400000 1.000000
vt 0.200000 0.200000
vt 0.000000 0.000000
vt 0.000000 0.000000
vt 0.000000 0.000000
vt 0.000000 0.000000
vt 0.000000 0.000000
vt 0.000000 0.000000
vt 0.000000 0.000000
vt 0.000000 0.000000
vt 0.000000 0.000000
vt 0.000000 0.000000
vt 0.000000 0.000000
vt 0.000000 0.000000
vt 0.000000 0.000000
vt 0.000000 0.000000
vn -1.0000 0.0000 0.0000
vn 0.0000 0.0000 -1.0000
vn 1.0000 0.0000 0.0000
vn 0.0000 0.0000 1.0000
vn 0.0000 -1.0000 0.0000
vn 0.0000 1.0000 0.0000
usemtl None
s off
f 2/1/1 3/2/1 1/3/1
f 4/4/2 7/5/2 3/6/2
f 8/7/3 5/8/3 7/9/3
f 6/10/4 1/3/4 5/11/4
f 7/12/5 1/13/5 3/14/5
f 4/15/6 6/16/6 8/17/6
f 2/1/1 4/18/1 3/2/1
f 4/4/2 8/19/2 7/5/2
f 8/7/3 6/20/3 5/8/3
f 6/10/4 2/1/4 1/3/4
f 7/12/5 5/21/5 1/13/5
f 4/15/6 2/22/6 6/16/6
f 10/23/1 11/24/1 9/25/1
f 12/26/2 15/27/2 11/28/2
f 16/29/3 13/30/3 15/31/3
f 14/32/4 9/33/4 13/34/4
f 15/35/5 9/36/5 11/37/5
f 12/38/6 14/39/6 16/40/6
f 10/23/1 12/41/1 11/24/1
f 12/26/2 16/42/2 15/27/2
f 16/29/3 14/43/3 13/30/3
f 14/32/4 10/44/4 9/33/4
f 15/35/5 13/45/5 9/36/5
f 12/38/6 10/46/6 14/39/6
f 18/47/1 19/48/1 17/49/1
f 20/50/2 23/51/2 19/52/2
f 24/53/3 21/54/3 23/55/3
f 22/56/4 17/57/4 21/58/4
f 23/59/5 17/60/5 19/61/5
f 20/62/6 22/63/6 24/64/6
f 18/47/1 20/65/1 19/48/1
f 20/50/2 24/66/2 23/51/2
f 24/53/3 22/67/3 21/54/3
f 22/56/4 18/68/4 17/57/4
f 23/59/5 21/69/5 17/60/5
f 20/62/6 18/70/6 22/63/6
f 26/71/1 27/72/1 25/73/1
f 28/74/2 31/75/2 27/76/2
f 32/77/3 29/78/3 31/79/3
f 30/80/4 25/81/4 29/82/4
f 31/83/5 25/84/5 27/85/5
f 28/86/6 30/87/6 32/88/6
f 26/71/1 28/89/1 27/72/1
f 28/74/2 32/90/2 31/75/2
f 32/77/3 30/91/3 29/78/3
f 30/80/4 26/92/4 25/81/4
f 31/83/5 29/78/5 25/84/5
f 28/86/6 26/93/6 30/87/6
f 2/1/6 4/18/6 16/40/6
f 13/30/5 15/31/5 3/2/5
f 13/94/4 1/95/4 2/96/4
f 16/97/2 4/98/2 3/99/2
f 16/40/6 30/80/6 26/92/6
f 15/27/5 25/81/5 29/82/5
f 25/100/1 11/101/1 12/102/1
f 30/103/3 16/97/3 15/104/3
f 14/39/6 2/1/6 16/40/6
f 15/104/2 16/97/2 3/99/2
f 29/105/3 30/103/3 15/104/3
f 26/106/1 25/100/1 12/102/1
f 12/38/6 16/40/6 26/92/6
f 14/107/4 13/94/4 2/96/4
f 1/3/5 13/30/5 3/2/5
f 15/27/5 11/28/5 25/81/5
