# Blender v3.1.2 OBJ File: ''
# www.blender.org
mtllib CenterMaze.mtl
o Cube.002
v 3.718463 3.262403 14.236550
v 3.718463 -3.262407 5.106422
v 3.718463 -3.262408 14.236548
v 3.718463 3.262405 5.106423
v 12.283989 -3.262407 5.106422
v 12.283989 3.262405 5.106423
v 12.283989 -3.262408 14.236548
v 12.283989 3.262403 14.236550
v 3.718464 3.262406 -5.106445
v 3.718464 -3.262404 -14.236566
v 3.718464 -3.262405 -5.106446
v 3.718464 3.262407 -14.236564
v 12.283989 -3.262404 -14.236566
v 12.283989 3.262407 -14.236564
v 12.283989 -3.262405 -5.106446
v 12.283989 3.262406 -5.106445
v -12.283987 3.262403 14.236550
v -12.283987 -3.262407 5.106422
v -12.283987 -3.262408 14.236548
v -12.283987 3.262404 5.106423
v -3.718462 -3.262407 5.106422
v -3.718462 3.262404 5.106423
v -3.718462 -3.262408 14.236548
v -3.718462 3.262403 14.236550
v -12.283987 3.262406 -5.106445
v -12.283987 -3.262404 -14.236566
v -12.283987 -3.262405 -5.106446
v -12.283987 3.262407 -14.236564
v -3.718462 -3.262404 -14.236566
v -3.718462 3.262407 -14.236564
v -3.718462 -3.262405 -5.106446
v -3.718462 3.262406 -5.106445
vt 0.800000 0.400000
vt 0.600000 0.200000
vt 0.800000 0.200000
vt 0.600000 0.800000
vt 0.400000 0.600000
vt 0.600000 0.600000
vt 0.800000 0.600000
vt 0.600000 0.400000
vt 0.800000 0.400000
vt 0.800000 0.800000
vt 0.600000 0.600000
vt 0.800000 0.600000
vt 0.200000 0.800000
vt 0.000000 1.000000
vt 0.000000 0.800000
vt 1.000000 0.000000
vt 0.800000 0.200000
vt 0.800000 0.000000
vt 0.600000 0.400000
vt 0.400000 0.800000
vt 0.600000 0.600000
vt 0.600000 0.800000
vt 0.200000 1.000000
vt 1.000000 0.200000
vt 0.600000 0.400000
vt 0.400000 0.200000
vt 0.600000 0.200000
vt 0.400000 0.600000
vt 0.200000 0.400000
vt 0.400000 0.400000
vt 0.600000 0.600000
vt 0.400000 0.400000
vt 0.600000 0.400000
vt 0.200000 0.800000
vt 0.000000 0.600000
vt 0.200000 0.600000
vt 0.800000 0.000000
vt 0.600000 0.000000
vt 0.200000 0.600000
vt 0.400000 0.400000
vt 0.400000 0.600000
vt 0.000000 0.800000
vt 0.800000 0.200000
vt 0.400000 0.800000
vt 1.000000 0.400000
vt 0.800000 0.200000
vt 1.000000 0.200000
vt 0.400000 1.000000
vt 0.200000 0.800000
vt 0.400000 0.800000
vt 0.600000 1.000000
vt 0.400000 0.800000
vt 0.600000 0.800000
vt 1.000000 0.600000
vt 0.800000 0.400000
vt 1.000000 0.400000
vt 1.000000 0.600000
vt 0.800000 0.800000
vt 0.800000 0.600000
vt 0.800000 0.800000
vt 0.600000 1.000000
vt 0.600000 0.800000
vt 0.800000 0.400000
vt 0.200000 1.000000
vt 0.400000 1.000000
vt 0.800000 0.600000
vt 1.000000 0.800000
vt 0.800000 1.000000
vt 0.200000 0.200000
vt 0.000000 0.000000
vt 0.200000 0.000000
vt 0.200000 0.400000
vt 0.000000 0.200000
vt 0.200000 0.200000
vt 0.400000 0.200000
vt 0.200000 0.000000
vt 0.400000 0.000000
vt 0.400000 0.400000
vt 0.200000 0.200000
vt 0.400000 0.200000
vt 0.200000 0.400000
vt 0.000000 0.600000
vt 0.000000 0.400000
vt 0.600000 0.000000
vt 0.400000 0.200000
vt 0.400000 0.000000
vt 0.000000 0.200000
vt 0.000000 0.400000
vt 0.200000 0.200000
vt 0.200000 0.400000
vt 0.200000 0.600000
vt 0.600000 0.200000
vn -1.0000 -0.0000 0.0000
vn 0.0000 0.0000 -1.0000
vn 1.0000 0.0000 0.0000
vn 0.0000 -0.0000 1.0000
vn 0.0000 -1.0000 -0.0000
vn 0.0000 1.0000 0.0000
usemtl None
s 1
f 1/1/1 2/2/1 3/3/1
f 4/4/2 5/5/2 2/6/2
f 6/7/3 7/8/3 5/9/3
f 8/10/4 3/11/4 7/12/4
f 5/13/5 3/14/5 2/15/5
f 4/16/6 8/17/6 6/18/6
f 1/1/1 4/19/1 2/2/1
f 4/4/2 6/20/2 5/5/2
f 6/7/3 8/21/3 7/8/3
f 8/10/4 1/22/4 3/11/4
f 5/13/5 7/23/5 3/14/5
f 4/16/6 1/24/6 8/17/6
f 9/25/1 10/26/1 11/27/1
f 12/28/2 13/29/2 10/30/2
f 14/31/3 15/32/3 13/33/3
f 16/34/4 11/35/4 15/36/4
f 13/37/5 11/27/5 10/38/5
f 12/28/6 16/34/6 14/39/6
f 9/25/1 12/40/1 10/26/1
f 12/28/2 14/39/2 13/29/2
f 14/31/3 16/41/3 15/32/3
f 16/34/4 9/42/4 11/35/4
f 13/37/5 15/43/5 11/27/5
f 12/28/6 9/44/6 16/34/6
f 17/45/1 18/46/1 19/47/1
f 20/48/2 21/49/2 18/50/2
f 22/51/3 23/52/3 21/53/3
f 24/54/4 19/55/4 23/56/4
f 21/57/5 19/58/5 18/59/5
f 20/60/6 24/61/6 22/62/6
f 17/45/1 20/63/1 18/46/1
f 20/48/2 22/64/2 21/49/2
f 22/51/3 24/65/3 23/52/3
f 24/54/4 17/66/4 19/55/4
f 21/57/5 23/67/5 19/58/5
f 20/60/6 17/68/6 24/61/6
f 25/69/1 26/70/1 27/71/1
f 28/72/2 29/73/2 26/74/2
f 30/75/3 31/76/3 29/77/3
f 32/78/4 27/79/4 31/80/4
f 29/81/5 27/82/5 26/83/5
f 28/84/6 32/85/6 30/86/6
f 25/69/1 28/87/1 26/70/1
f 28/72/2 30/88/2 29/73/2
f 30/75/3 32/89/3 31/76/3
f 32/78/4 25/90/4 27/79/4
f 29/81/5 31/91/5 27/82/5
f 28/84/6 25/92/6 32/85/6
