# Blender v3.1.2 OBJ File: ''
# www.blender.org
mtllib CornerMaze.mtl
o Cube.006_Cube.013
v 3.718462 3.262407 -5.106441
v 3.718462 -3.262404 -14.236562
v 3.718462 -3.262405 -5.106442
v 3.718462 3.262408 -14.236560
v 12.283987 -3.262404 -14.236562
v 12.283987 3.262408 -14.236560
v 12.283987 -3.262405 -5.106442
v 12.283987 3.262407 -5.106441
v -3.718463 -3.262408 5.106441
v -3.718463 3.262403 14.236562
v -3.718463 -3.262409 14.236560
v 3.718462 3.262404 5.106438
v 12.283987 -3.262407 5.106437
v 3.718462 -3.262407 5.106437
v 12.283987 3.262404 5.106438
v 12.283987 -3.262408 14.236558
v 12.283987 3.262403 14.236560
v 3.718462 -3.262408 14.236558
v 3.718462 3.262403 14.236560
v -12.283987 3.262403 14.236562
v -12.283987 -3.262408 5.106441
v -12.283987 -3.262409 14.236560
v -12.283987 3.262404 5.106442
v -3.718463 3.262404 5.106442
v -12.283987 3.262406 -5.106437
v -12.283987 -3.262405 -14.236558
v -12.283987 -3.262406 -5.106438
v -12.283987 3.262407 -14.236556
v -3.718463 -3.262405 -14.236558
v -3.718463 3.262407 -14.236556
v -3.718463 -3.262406 -5.106438
v -3.718463 3.262406 -5.106437
vt 0.666667 0.500000
vt 0.500000 0.333333
vt 0.666667 0.333333
vt 0.833333 0.166667
vt 0.666667 0.000000
vt 0.833333 0.000000
vt 0.666667 0.333333
vt 0.500000 0.166667
vt 0.666667 0.166667
vt 0.333333 0.686432
vt 0.166667 0.519765
vt 0.333333 0.519765
vt 0.500000 0.166667
vt 0.500000 0.000000
vt 0.500000 0.372864
vt 0.333333 0.539531
vt 0.333333 0.372864
vt 0.500000 0.500000
vt 0.666667 0.166667
vt 0.500000 0.333333
vt 0.166667 0.686432
vt 0.666667 0.166667
vt 0.500000 0.539531
vt 0.333333 0.166667
vt 0.166667 0.000000
vt 0.333333 0.000000
vt 0.833333 0.500000
vt 0.666667 0.333333
vt 0.833333 0.333333
vt 0.666667 0.666667
vt 0.500000 0.500000
vt 0.666667 0.500000
vt 0.166667 0.686432
vt 0.000000 0.519765
vt 0.166667 0.519765
vt 0.666667 0.666667
vt 0.500000 0.833333
vt 0.500000 0.666667
vt 0.333333 0.686432
vt 0.166667 0.853099
vt 0.166667 0.686432
vt 0.644707 0.833333
vt 0.644707 1.000000
vt 0.789413 1.000000
vt 0.666667 0.500000
vt 0.500000 0.666667
vt 0.000000 0.686432
vt 0.666667 0.833333
vt 0.333333 0.853099
vt 0.833333 0.333333
vt 0.666667 0.166667
vt 0.833333 0.166667
vt 1.000000 0.500000
vt 0.833333 0.333333
vt 1.000000 0.333333
vt 0.978040 0.833333
vt 0.978040 0.666667
vt 0.833333 0.666667
vt 0.166667 0.853099
vt 0.000000 0.686432
vt 0.166667 0.686432
vt 0.166667 0.353099
vt 0.000000 0.519765
vt 0.000000 0.353099
vt 0.833333 0.666667
vt 0.666667 0.833333
vt 0.666667 0.666667
vt 0.666667 0.333333
vt 0.833333 0.500000
vt 0.833333 0.500000
vt 0.833333 0.666667
vt 0.978040 0.666667
vt 0.000000 0.853099
vt 0.166667 0.519765
vt 0.833333 0.833333
vt 0.833333 0.666667
vt 0.666667 0.500000
vt 0.833333 0.500000
vt 0.500000 0.872864
vt 0.333333 0.706197
vt 0.500000 0.706197
vt 0.166667 0.519765
vt 0.333333 0.353098
vt 0.333333 0.519765
vt 1.000000 0.166667
vt 0.833333 0.000000
vt 1.000000 0.000000
vt 0.166667 0.000000
vt 0.000000 0.166667
vt 0.000000 0.000000
vt 1.000000 0.166667
vt 0.833333 0.333333
vt 0.833333 0.166667
vt 0.666667 0.666667
vt 0.333333 0.872864
vt 0.166667 0.353098
vt 0.833333 0.166667
vt 0.166667 0.166667
vt 1.000000 0.333333
vt 0.500000 0.539531
vt 0.333333 0.706197
vt 0.333333 0.539531
vt 0.000000 0.000000
vt 0.000000 0.000000
vt 0.000000 0.000000
vt 0.333333 0.186432
vt 0.500000 0.186432
vt 0.500000 0.000000
vt 0.333333 0.372864
vt 0.500000 0.372864
vt 0.166667 0.166667
vt 0.789413 0.833333
vt 0.833333 0.833333
vt 0.978040 0.500000
vt 0.500000 0.706197
vt 0.000000 0.000000
vt 0.333333 0.000000
vt 0.500000 0.186432
vn -1.0000 0.0000 0.0000
vn 0.0000 0.0000 -1.0000
vn 1.0000 -0.0000 0.0000
vn 0.0000 -0.0000 1.0000
vn 0.0000 -1.0000 -0.0000
vn 0.0000 1.0000 0.0000
usemtl None.002
s 1
f 1/1/1 2/2/1 3/3/1
f 4/4/2 5/5/2 2/6/2
f 6/7/3 7/8/3 5/9/3
f 8/10/4 3/11/4 7/12/4
f 5/5/5 3/13/5 2/14/5
f 4/15/6 8/16/6 6/17/6
f 1/1/1 4/18/1 2/2/1
f 4/4/2 6/19/2 5/5/2
f 6/7/3 8/20/3 7/8/3
f 8/10/4 1/21/4 3/11/4
f 5/5/5 7/22/5 3/13/5
f 4/15/6 1/23/6 8/16/6
f 9/24/3 10/25/3 11/26/3
f 12/27/2 13/28/2 14/29/2
f 15/30/3 16/31/3 13/32/3
f 17/33/4 18/34/4 16/35/4
f 13/36/5 18/37/5 14/38/5
f 12/39/6 17/40/6 15/41/6
f 18/42/4 19/43/4 10/44/4
f 12/27/2 15/45/2 13/28/2
f 15/30/3 17/46/3 16/31/3
f 17/33/4 19/47/4 18/34/4
f 13/36/5 16/48/5 18/37/5
f 12/39/6 19/49/6 17/40/6
f 20/50/1 21/51/1 22/52/1
f 23/53/2 9/54/2 21/55/2
f 19/56/6 12/57/6 24/58/6
f 10/59/4 22/60/4 11/61/4
f 9/62/5 22/63/5 21/64/5
f 23/65/6 10/66/6 24/67/6
f 20/50/1 23/68/1 21/51/1
f 23/53/2 24/69/2 9/54/2
f 14/70/5 18/71/5 11/72/5
f 10/59/4 20/73/4 22/60/4
f 9/62/5 11/74/5 22/63/5
f 23/65/6 20/75/6 10/66/6
f 25/76/1 26/77/1 27/78/1
f 28/79/2 29/80/2 26/81/2
f 30/82/3 31/83/3 29/84/3
f 32/85/4 27/86/4 31/87/4
f 29/88/5 27/89/5 26/90/5
f 28/91/6 32/92/6 30/93/6
f 25/76/1 28/94/1 26/77/1
f 28/79/2 30/95/2 29/80/2
f 30/82/3 32/96/3 31/83/3
f 32/85/4 25/97/4 27/86/4
f 29/88/5 31/98/5 27/89/5
f 28/91/6 25/99/6 32/92/6
f 18/100/1 12/101/1 14/102/1
f 12/103/2 14/104/2 24/105/2
f 23/106/6 24/107/6 32/108/6
f 21/64/5 31/98/5 9/62/5
f 23/106/1 25/109/1 27/110/1
f 24/111/3 31/83/3 32/96/3
f 9/24/3 24/111/3 10/25/3
f 18/42/4 10/44/4 11/112/4
f 19/56/6 24/58/6 10/113/6
f 14/70/5 11/72/5 9/114/5
f 18/100/1 19/115/1 12/101/1
f 14/104/2 9/116/2 24/105/2
f 23/106/6 32/108/6 25/117/6
f 21/64/5 27/89/5 31/98/5
f 23/106/1 27/110/1 21/118/1
f 24/111/3 9/24/3 31/83/3
