# Blender v2.93.4 OBJ File: 'mazeWalls.blend'
# www.blender.org
mtllib CornerMaze.mtl
o Cube.005
v -4.271340 0.173261 -30.408083
v -4.271340 6.698073 -30.408083
v -4.271340 0.173261 -39.538204
v -4.271340 6.698073 -39.538204
v 4.294185 0.173261 -30.408083
v 4.294185 6.698073 -30.408083
v 4.294185 0.173261 -39.538204
v 4.294185 6.698073 -39.538204
v -4.271340 0.173261 -49.789761
v -4.271340 6.698073 -49.789761
v 4.294185 0.173261 -49.789761
v 4.294185 6.698073 -49.789761
v -4.271340 6.698073 -58.775734
v -4.271340 0.173261 -58.775734
v 4.294185 0.173261 -58.775734
v 4.294185 6.698073 -58.775734
v 11.269475 6.698073 -49.789761
v 11.269475 0.173261 -49.789761
v 11.269475 6.698073 -58.775734
v 11.269475 0.173261 -58.775734
v 17.953430 6.698073 -49.789761
v 17.953430 0.173261 -49.789761
v 17.953430 6.698073 -58.775734
v 17.953430 0.173261 -58.775734
v 11.269475 6.698073 -32.107468
v 11.269475 0.173261 -32.107468
v 17.953430 6.698073 -32.107468
v 17.953430 0.173261 -32.107468
v 11.269475 6.698073 -32.027050
v 11.269475 0.173261 -32.027050
v 17.953430 6.698073 -32.027050
v 17.953430 0.173261 -32.027050
v 11.269475 6.698073 -30.413822
v 11.269475 0.173261 -30.413822
v 17.953430 6.698073 -30.413822
v 17.953430 0.173261 -30.413822
vt 0.807839 0.663464
vt 0.969406 0.501896
vt 0.969406 0.663464
vt 0.323135 0.795036
vt 0.484703 0.633468
vt 0.484703 0.795036
vt 0.323135 0.956603
vt 0.484703 0.795036
vt 0.484703 0.956603
vt 0.807839 0.663464
vt 0.646271 0.501896
vt 0.807839 0.501896
vt 0.807839 0.663464
vt 0.646271 0.825032
vt 0.646271 0.663464
vt 0.646271 0.663464
vt 0.484703 0.825032
vt 0.484703 0.663464
vt 0.807839 0.501896
vt 0.000000 0.759544
vt 0.161568 0.921112
vt 0.000000 0.921112
vt 0.323135 0.795036
vt 0.646271 0.663464
vt 0.807839 0.825032
vt 0.646271 0.825032
vt 0.646271 0.501896
vt 0.257648 0.159017
vt 0.419216 0.000000
vt 0.419216 0.159017
vt 0.966856 0.825031
vt 0.807839 0.663464
vt 0.966856 0.663464
vt 0.323135 0.633468
vt 0.484703 0.501896
vt 0.419216 0.159017
vt 0.580784 0.000000
vt 0.580784 0.159017
vt 0.126077 0.159017
vt 0.000000 0.000000
vt 0.126077 0.000000
vt 0.257648 0.000000
vt 0.712356 0.159017
vt 0.161568 0.627973
vt 0.161568 0.759544
vt 1.000000 0.342879
vt 0.838432 0.501896
vt 0.838432 0.342879
vt 0.323135 0.501896
vt 0.161568 0.814804
vt 0.161568 0.501896
vt 0.712356 0.000000
vt 0.838432 0.159017
vt 0.000000 0.627973
vt 0.161568 0.501896
vt 0.126077 0.471925
vt 0.000000 0.473348
vt 0.000000 0.471925
vt 0.712356 0.471925
vt 0.000000 0.159017
vt 1.000000 0.029971
vt 0.838432 0.028548
vt 1.000000 0.000000
vt 1.000000 0.028548
vt 0.323135 0.814804
vt 0.161568 0.816227
vt 0.838432 0.471925
vt 0.712356 0.473348
vt 0.838432 0.029971
vt 0.484703 0.501896
vt 0.807839 0.825031
vt 0.419216 0.000000
vt 1.000000 0.501896
vt 0.838432 0.000000
vt 0.000000 0.501896
vt 0.126077 0.473348
vt 0.838432 0.473348
vt 0.712356 0.501896
vt 0.323135 0.816227
vt 0.484703 0.825032
vt 0.610780 0.986599
vt 0.484703 0.986599
vt 0.610780 0.825032
vt 0.000000 0.501896
vt 0.161568 0.844775
vt 0.838432 0.000000
vt 0.838432 0.501896
vt 0.126077 0.501896
vt 0.323135 0.844775
vn -1.0000 0.0000 0.0000
vn 0.0000 0.0000 1.0000
vn 1.0000 0.0000 0.0000
vn 0.0000 -1.0000 0.0000
vn 0.0000 1.0000 0.0000
vn 0.0000 0.0000 -1.0000
usemtl None
s off
f 2/1/1 3/2/1 1/3/1
f 9/4/2 12/5/2 10/6/2
f 8/7/3 5/8/3 7/9/3
f 6/10/2 1/11/2 5/12/2
f 7/13/4 1/14/4 3/15/4
f 4/16/5 6/17/5 8/18/5
f 2/1/1 4/19/1 3/2/1
f 16/20/6 14/21/6 13/22/6
f 8/7/3 6/23/3 5/8/3
f 6/10/2 2/24/2 1/11/2
f 7/13/4 5/25/4 1/14/4
f 4/16/5 2/26/5 6/17/5
f 8/18/6 3/27/6 4/16/6
f 12/28/5 13/29/5 10/30/5
f 10/31/1 14/32/1 9/33/1
f 11/34/2 17/35/2 12/5/2
f 9/36/4 15/37/4 11/38/4
f 17/39/5 23/40/5 19/41/5
f 12/28/5 19/41/5 16/42/5
f 15/37/4 18/43/4 11/38/4
f 16/20/6 20/44/6 15/45/6
f 22/46/3 23/47/3 21/48/3
f 18/49/1 25/50/1 17/51/1
f 20/52/4 22/53/4 18/43/4
f 19/54/6 24/55/6 20/44/6
f 25/56/5 31/57/5 27/58/5
f 22/53/4 26/59/4 18/43/4
f 17/39/5 27/58/5 21/60/5
f 21/48/3 28/61/3 22/46/3
f 31/62/3 36/63/3 32/64/3
f 26/65/1 29/66/1 25/50/1
f 28/67/4 30/68/4 26/59/4
f 27/69/3 32/64/3 28/61/3
f 9/4/2 11/34/2 12/5/2
f 16/20/6 15/45/6 14/21/6
f 8/18/6 7/70/6 3/27/6
f 12/28/5 16/42/5 13/29/5
f 10/31/1 13/71/1 14/32/1
f 11/34/2 18/49/2 17/35/2
f 9/36/4 14/72/4 15/37/4
f 17/39/5 21/60/5 23/40/5
f 12/28/5 17/39/5 19/41/5
f 15/37/4 20/52/4 18/43/4
f 16/20/6 19/54/6 20/44/6
f 22/46/3 24/73/3 23/47/3
f 18/49/1 26/65/1 25/50/1
f 20/52/4 24/74/4 22/53/4
f 19/54/6 23/75/6 24/55/6
f 25/56/5 29/76/5 31/57/5
f 22/53/4 28/67/4 26/59/4
f 17/39/5 25/56/5 27/58/5
f 21/48/3 27/69/3 28/61/3
f 32/77/4 34/78/4 30/68/4
f 26/65/1 30/79/1 29/66/1
f 28/67/4 32/77/4 30/68/4
f 27/69/3 31/62/3 32/64/3
f 34/80/2 35/81/2 33/82/2
f 34/80/2 36/83/2 35/81/2
f 29/76/5 35/84/5 31/57/5
f 30/79/1 33/85/1 29/66/1
f 31/62/3 35/86/3 36/63/3
f 32/77/4 36/87/4 34/78/4
f 29/76/5 33/88/5 35/84/5
f 30/79/1 34/89/1 33/85/1
