# Blender v2.93.4 OBJ File: 'mazeWalls.blend'
# www.blender.org
mtllib CornerMaze.mtl
o Cube.002_Cube.004
v 4.424893 -3.262406 13.136630
v 4.424893 3.262406 13.136630
v 4.424893 -3.262406 4.006512
v 4.424893 3.262406 4.006512
v 12.990417 -3.262406 13.136630
v 12.990417 3.262406 13.136630
v 12.990417 -3.262406 4.006512
v 12.990417 3.262406 4.006512
v -12.990418 -3.262406 13.136630
v -12.990418 3.262406 13.136630
v -12.990418 -3.262406 4.006512
v -12.990418 3.262406 4.006512
v -4.424891 -3.262406 13.136630
v -4.424891 3.262406 13.136630
v -4.424891 -3.262406 4.006512
v -4.424891 3.262406 4.006512
v 4.424892 -3.262406 -4.006534
v 4.424892 3.262406 -4.006534
v 4.424892 -3.262406 -13.136654
v 4.424892 3.262406 -13.136654
v 12.990417 -3.262406 -4.006534
v 12.990417 3.262406 -4.006534
v 12.990417 -3.262406 -13.136654
v 12.990417 3.262406 -13.136654
v -12.990417 -3.262406 -4.006534
v -12.990417 3.262406 -4.006534
v -12.990417 -3.262406 -13.136654
v -12.990417 3.262406 -13.136654
v -4.424891 -3.262406 -4.006534
v -4.424891 3.262406 -4.006534
v -4.424891 -3.262406 -13.136654
v -4.424891 3.262406 -13.136654
vt 0.434101 1.000000
vt 0.289401 0.855300
vt 0.434101 0.855300
vt 0.289401 0.733106
vt 0.144700 0.877806
vt 0.144700 0.733106
vt 0.977494 0.144700
vt 0.832793 0.000000
vt 0.977494 0.000000
vt 0.144700 0.438903
vt 0.000000 0.583603
vt 0.000000 0.438903
vt 0.271697 0.000000
vt 0.416397 0.144700
vt 0.271696 0.144700
vt 0.688093 0.294203
vt 0.832793 0.438903
vt 0.688093 0.438903
vt 0.289401 1.000000
vt 0.289401 0.877806
vt 0.832793 0.144700
vt 0.144700 0.583603
vt 0.416397 0.000000
vt 0.832793 0.294203
vt 0.289401 0.855299
vt 0.434101 0.710599
vt 0.434101 0.855299
vt 0.289401 0.438903
vt 0.144700 0.583603
vt 0.144700 0.438903
vt 0.434101 0.583603
vt 0.578801 0.438903
vt 0.578801 0.583603
vt 0.144700 0.733105
vt 0.000000 0.877806
vt 0.000000 0.733105
vt 0.271696 0.294203
vt 0.416397 0.438903
vt 0.271696 0.438903
vt 0.688093 0.000000
vt 0.832793 0.144700
vt 0.688093 0.144700
vt 0.289401 0.710599
vt 0.289401 0.583603
vt 0.434101 0.438903
vt 0.144700 0.877806
vt 0.416397 0.294203
vt 0.832793 0.000000
vt 0.723501 0.728304
vt 0.578801 0.583603
vt 0.723501 0.583603
vt 0.977494 0.434101
vt 0.832793 0.289401
vt 0.977494 0.289401
vt 0.868202 0.728304
vt 0.723502 0.583603
vt 0.868202 0.583603
vt 0.977494 0.289401
vt 0.832793 0.144700
vt 0.977494 0.144700
vt 0.723502 0.728304
vt 0.578801 0.873004
vt 0.578801 0.728304
vt 0.868202 0.728304
vt 0.723501 0.873004
vt 0.723501 0.728304
vt 0.578801 0.728304
vt 0.832793 0.434101
vt 0.723502 0.728304
vt 0.832793 0.289401
vt 0.723502 0.873004
vt 0.868202 0.873004
vt 0.289401 0.583603
vt 0.434101 0.438903
vt 0.434101 0.583603
vt 0.578801 0.583603
vt 0.723501 0.438903
vt 0.723501 0.583603
vt 0.434101 0.855299
vt 0.578801 0.710599
vt 0.578801 0.855299
vt 0.723501 0.583603
vt 0.868202 0.438903
vt 0.868202 0.583603
vt 0.000000 0.294203
vt 0.144700 0.438903
vt 0.000000 0.438903
vt 0.416397 0.000000
vt 0.561097 0.144700
vt 0.416397 0.144700
vt 0.289401 0.438903
vt 0.578801 0.438903
vt 0.434101 0.710599
vt 0.723501 0.438903
vt 0.144700 0.294203
vt 0.561097 0.000000
vn -1.0000 0.0000 0.0000
vn 0.0000 0.0000 -1.0000
vn 1.0000 0.0000 0.0000
vn 0.0000 0.0000 1.0000
vn 0.0000 -1.0000 0.0000
vn 0.0000 1.0000 0.0000
usemtl None
s off
f 2/1/1 3/2/1 1/3/1
f 4/4/2 7/5/2 3/6/2
f 8/7/3 5/8/3 7/9/3
f 6/10/4 1/11/4 5/12/4
f 7/13/5 1/14/5 3/15/5
f 4/16/6 6/17/6 8/18/6
f 2/1/1 4/19/1 3/2/1
f 4/4/2 8/20/2 7/5/2
f 8/7/3 6/21/3 5/8/3
f 6/10/4 2/22/4 1/11/4
f 7/13/5 5/23/5 1/14/5
f 4/16/6 2/24/6 6/17/6
f 10/25/1 11/26/1 9/27/1
f 12/28/2 15/29/2 11/30/2
f 16/31/3 13/32/3 15/33/3
f 14/34/4 9/35/4 13/36/4
f 15/37/5 9/38/5 11/39/5
f 12/40/6 14/41/6 16/42/6
f 10/25/1 12/43/1 11/26/1
f 12/28/2 16/44/2 15/29/2
f 16/31/3 14/45/3 13/32/3
f 14/34/4 10/46/4 9/35/4
f 15/37/5 13/47/5 9/38/5
f 12/40/6 10/48/6 14/41/6
f 18/49/1 19/50/1 17/51/1
f 20/52/2 23/53/2 19/54/2
f 24/55/3 21/56/3 23/57/3
f 22/58/4 17/59/4 21/60/4
f 23/61/5 17/62/5 19/63/5
f 20/64/6 22/65/6 24/66/6
f 18/49/1 20/67/1 19/50/1
f 20/52/2 24/68/2 23/53/2
f 24/55/3 22/69/3 21/56/3
f 22/58/4 18/70/4 17/59/4
f 23/61/5 21/71/5 17/62/5
f 20/64/6 18/72/6 22/65/6
f 26/73/1 27/74/1 25/75/1
f 28/76/2 31/77/2 27/78/2
f 32/79/3 29/80/3 31/81/3
f 30/82/4 25/83/4 29/84/4
f 31/85/5 25/86/5 27/87/5
f 28/88/6 30/89/6 32/90/6
f 26/73/1 28/91/1 27/74/1
f 28/76/2 32/92/2 31/77/2
f 32/79/3 30/93/3 29/80/3
f 30/82/4 26/94/4 25/83/4
f 31/85/5 29/95/5 25/86/5
f 28/88/6 26/96/6 30/89/6
f 2/24/6 4/16/6 16/42/6
f 13/47/5 15/37/5 3/15/5
f 13/36/4 1/11/4 2/22/4
f 16/44/2 4/4/2 3/6/2
f 16/42/6 30/89/6 26/96/6
f 11/39/5 29/95/5 15/37/5
f 25/75/1 11/26/1 12/43/1
f 30/93/3 16/31/3 15/33/3
f 14/41/6 2/24/6 16/42/6
f 15/29/2 16/44/2 3/6/2
f 29/80/3 30/93/3 15/33/3
f 26/73/1 25/75/1 12/43/1
f 12/40/6 16/42/6 26/96/6
f 14/34/4 13/36/4 2/22/4
f 1/14/5 13/47/5 3/15/5
f 11/39/5 25/86/5 29/95/5
